<svg width="20" height="20" viewBox="0 0 20 20" fill="none" xmlns="http://www.w3.org/2000/svg">
<path fill-rule="evenodd" clip-rule="evenodd" d="M18.8165 5.17798L15.5554 1.9002C15.1067 1.45384 14.3818 1.45384 13.9331 1.9002L2.37202 13.4446L1.31646 18.0002C1.24272 18.3375 1.32516 18.69 1.54083 18.9596C1.7565 19.2292 2.08234 19.387 2.42758 19.3891C2.507 19.3971 2.58704 19.3971 2.66646 19.3891L7.27202 18.3335L18.8165 6.8002C19.2628 6.35157 19.2628 5.62661 18.8165 5.17798ZM6.71649 17.3335L2.39983 18.2391L3.38316 14.0058L12.0332 5.38909L15.3665 8.72242L6.71649 17.3335ZM12.7776 4.58354L16.1109 7.91687L17.9887 5.99465L14.7109 2.66131L12.7776 4.58354Z" fill="#4C39E9"/>
</svg>
