<svg width="30" height="30" viewBox="0 0 30 30" fill="none" xmlns="http://www.w3.org/2000/svg">
<path fill-rule="evenodd" clip-rule="evenodd" d="M13.7596 0.97959L16.9478 0.125312C16.3102 0.0426387 15.6601 0 15 0C6.71573 0 0 6.71573 0 15C0 23.2843 6.71573 30 15 30C23.2843 30 30 23.2843 30 15C30 13.2837 29.7118 11.6347 29.181 10.0989L23.2541 11.687L21.5976 5.50517L15.4161 7.16152L13.7596 0.97959ZM21.598 5.50497L25.6361 4.42296C24.161 2.93965 22.3776 1.76316 20.3902 0.997611L21.598 5.50497ZM17.0723 13.3434L23.2542 11.687L24.9107 17.8689L18.7288 19.5253L17.0723 13.3434ZM15.4156 7.1615L9.23363 8.81794L10.8901 14.9999L17.072 13.3434L15.4156 7.1615Z" fill="white"/>
</svg>
