<svg width="20" height="20" viewBox="0 0 20 20" fill="none" xmlns="http://www.w3.org/2000/svg">
<path d="M11.6328 9.94494L19.7328 1.84495C20.1104 1.40411 20.085 0.746961 19.6746 0.336552C19.2642 -0.0738577 18.607 -0.0992404 18.1662 0.278289L10.0662 8.37827L1.96619 0.267177C1.52535 -0.110352 0.8682 -0.0849688 0.45779 0.32544C0.0473812 0.73585 0.0219984 1.393 0.399527 1.83384L8.49951 9.94494L0.388416 18.0449C0.0713324 18.3165 -0.0667849 18.7428 0.0308502 19.1487C0.128485 19.5546 0.445395 19.8715 0.851283 19.9692C1.25717 20.0668 1.68354 19.9287 1.95508 19.6116L10.0662 11.5116L18.1662 19.6116C18.607 19.9891 19.2642 19.9637 19.6746 19.5533C20.085 19.1429 20.1104 18.4858 19.7328 18.0449L11.6328 9.94494Z" fill="#FF4B4B"/>
</svg>
